<?xml version="1.0" standalone="no"?>
<!DOCTYPE svg PUBLIC "-//W3C//DTD SVG 20010904//EN"
 "http://www.w3.org/TR/2001/REC-SVG-20010904/DTD/svg10.dtd">
<svg version="1.0" xmlns="http://www.w3.org/2000/svg"
 width="700.000000pt" height="700.000000pt" viewBox="0 0 700.000000 700.000000"
 preserveAspectRatio="xMidYMid meet">
<metadata>
Created by potrace 1.11, written by Peter Selinger 2001-2013
</metadata>
<g transform="translate(0.000000,700.000000) scale(0.100000,-0.100000)"
fill="#000000" stroke="none">
<path d="M3328 6994 c-2 -1 -41 -4 -88 -7 -47 -3 -85 -6 -85 -7 0 -1 -20 -3
-45 -5 -25 -1 -45 -3 -45 -5 0 -1 -16 -3 -35 -5 -19 -2 -48 -6 -65 -8 -16 -3
-50 -8 -75 -11 -25 -4 -53 -9 -62 -12 -20 -6 -52 -13 -98 -20 -19 -3 -42 -9
-50 -14 -8 -4 -23 -6 -32 -5 -10 2 -18 -1 -18 -6 0 -6 -6 -9 -12 -7 -7 1 -40
-6 -73 -16 -33 -10 -64 -19 -70 -20 -5 -1 -15 -5 -22 -9 -6 -4 -23 -8 -37 -9
-14 -1 -26 -6 -26 -10 0 -4 -7 -8 -15 -8 -13 0 -156 -52 -220 -79 -38 -17 -60
-24 -67 -23 -5 1 -8 -2 -8 -7 0 -8 -34 -21 -54 -20 -5 1 -12 -4 -15 -9 -7 -11
-66 -42 -80 -42 -6 0 -20 -8 -31 -17 -11 -10 -24 -18 -28 -18 -4 0 -11 -3 -17
-6 -5 -4 -37 -21 -70 -39 -33 -18 -63 -37 -66 -42 -3 -5 -10 -9 -14 -7 -4 1
-14 -3 -24 -9 -9 -7 -52 -35 -96 -64 -44 -29 -83 -57 -87 -63 -5 -6 -8 -6 -8
0 0 6 -3 6 -8 -1 -7 -10 -106 -87 -140 -109 -9 -5 -26 -19 -38 -30 -12 -11
-40 -35 -62 -53 -86 -70 -255 -233 -339 -328 -29 -32 -71 -79 -93 -104 -22
-25 -40 -48 -40 -52 0 -4 -8 -15 -18 -25 -30 -31 -86 -105 -141 -188 -29 -44
-58 -83 -65 -87 -6 -4 -7 -8 -3 -8 4 0 -10 -26 -32 -59 -22 -32 -37 -61 -34
-65 4 -3 1 -6 -5 -6 -7 0 -12 -7 -12 -15 0 -8 -4 -15 -9 -15 -7 0 -19 -28 -19
-47 0 -3 -5 -9 -10 -12 -16 -10 -144 -280 -137 -291 3 -5 2 -10 -4 -10 -6 0
-13 -11 -17 -25 -3 -14 -11 -22 -17 -18 -5 3 -7 1 -4 -4 4 -6 -10 -55 -30
-109 -20 -55 -36 -105 -36 -111 0 -7 -3 -13 -7 -13 -4 0 -7 -6 -8 -12 -2 -23
-7 -43 -15 -55 -5 -7 -6 -17 -2 -22 3 -5 1 -12 -4 -15 -8 -6 -26 -73 -23 -88
1 -5 -2 -8 -7 -8 -5 0 -8 -8 -7 -17 2 -10 -3 -35 -10 -55 -7 -20 -13 -45 -13
-55 0 -10 -4 -36 -10 -58 -11 -40 -20 -84 -26 -134 -2 -14 -4 -26 -5 -26 -1 0
-4 -13 -5 -30 -2 -16 -6 -50 -9 -75 -17 -135 -21 -217 -21 -430 1 -216 6 -330
20 -420 3 -19 8 -55 11 -80 11 -88 12 -95 14 -95 1 0 3 -11 4 -25 2 -14 8 -50
15 -80 7 -30 14 -66 17 -80 4 -21 14 -64 19 -80 5 -14 17 -58 19 -71 14 -62
20 -79 28 -79 5 0 6 -5 2 -11 -3 -6 -2 -21 4 -32 11 -25 55 -153 62 -182 1 -5
11 -28 23 -50 11 -22 19 -41 18 -43 -1 -1 7 -22 18 -47 11 -24 32 -73 47 -107
16 -35 32 -66 37 -69 5 -3 8 -9 8 -13 -1 -8 42 -100 50 -106 4 -3 17 -25 29
-50 12 -25 31 -57 41 -71 10 -14 16 -29 12 -33 -3 -3 -1 -6 5 -6 6 0 19 -15
28 -32 9 -18 20 -35 23 -38 3 -3 12 -17 20 -32 8 -15 22 -37 33 -47 10 -11 18
-23 18 -26 0 -7 76 -110 103 -139 9 -11 17 -26 17 -35 0 -8 3 -11 6 -8 4 3 25
-17 47 -46 23 -29 54 -64 69 -79 15 -16 26 -28 23 -28 -3 0 39 -45 94 -99 54
-55 96 -102 93 -105 -3 -3 1 -6 10 -6 8 0 29 -15 46 -33 17 -17 49 -48 72 -67
24 -19 48 -40 54 -45 6 -6 31 -26 56 -45 25 -19 47 -37 50 -40 3 -3 30 -23 60
-44 30 -22 56 -43 58 -48 2 -4 9 -8 17 -8 7 0 18 -6 24 -14 7 -8 27 -22 46
-31 19 -9 35 -20 35 -25 0 -6 6 -10 14 -10 8 0 21 -6 28 -12 8 -7 25 -19 38
-27 14 -8 48 -27 75 -43 28 -16 64 -35 82 -43 17 -8 34 -19 38 -25 3 -5 15
-10 25 -10 10 0 23 -7 28 -16 5 -9 12 -15 15 -15 4 1 8 1 10 0 1 0 10 -2 20
-4 10 -2 26 -10 35 -19 10 -8 20 -15 25 -15 4 -1 24 -8 45 -17 146 -62 322
-126 322 -117 0 3 7 0 15 -7 8 -7 15 -9 15 -4 0 5 4 4 8 -1 6 -8 65 -28 152
-50 8 -2 15 -4 15 -5 0 -1 11 -3 25 -5 35 -6 65 -13 65 -16 0 -1 9 -3 20 -5
21 -4 91 -18 135 -28 25 -5 88 -14 145 -21 17 -2 30 -4 30 -5 0 -1 16 -3 35
-5 19 -1 64 -6 100 -11 36 -4 173 -8 305 -8 220 -1 310 3 450 19 28 4 64 8 80
10 17 2 30 4 30 5 0 1 16 4 35 6 29 4 96 16 210 39 8 2 16 4 18 5 1 2 7 4 12
5 6 1 13 4 18 5 4 1 10 2 14 1 3 0 30 7 60 15 29 9 64 18 77 21 14 2 29 7 35
11 6 3 17 8 24 9 6 2 18 4 25 6 6 1 17 6 23 9 6 4 21 9 35 12 28 6 176 61 201
76 10 6 22 10 28 10 16 0 325 152 328 161 2 5 9 9 16 9 6 0 45 20 85 45 40 25
77 45 81 45 5 0 10 3 12 8 3 7 113 83 132 91 5 2 16 10 25 17 46 37 126 94
134 94 4 0 5 4 2 10 -3 5 -2 10 4 10 11 0 123 91 157 127 12 13 24 23 27 23
18 0 272 269 372 395 40 50 50 62 72 89 6 7 9 17 6 20 -4 3 -2 6 4 6 6 0 32
33 59 73 26 39 50 74 53 77 11 9 71 111 71 120 0 5 4 10 8 12 17 6 202 363
202 389 0 5 4 9 8 9 5 0 9 6 9 13 0 6 8 30 18 52 10 22 19 45 21 50 15 54 61
172 69 177 6 4 7 8 4 8 -4 0 2 28 13 62 22 73 57 201 64 238 3 14 11 52 19 86
8 34 17 83 21 110 3 27 11 52 16 55 7 4 6 9 -1 13 -6 4 -9 11 -6 16 2 4 7 24
10 44 3 20 7 52 10 72 3 20 8 40 11 45 3 5 -1 9 -8 9 -9 0 -9 3 2 10 12 8 12
10 1 10 -9 0 -10 4 -4 12 25 32 23 472 -3 723 -8 85 -12 110 -14 110 -1 0 -3
11 -4 25 -3 23 -9 58 -21 120 -3 14 -7 36 -10 50 -7 38 -22 100 -25 110 -1 3
-3 10 -5 15 -1 6 -3 12 -4 15 -2 3 -4 14 -6 25 -3 18 -11 51 -19 80 -2 6 -6
24 -11 40 -4 17 -12 36 -18 43 -5 6 -7 12 -4 12 3 0 -5 30 -19 68 -14 37 -27
75 -29 84 -2 9 -8 25 -13 35 -6 10 -11 21 -11 25 -2 7 -9 25 -36 93 -5 11 -7
23 -7 28 1 4 -3 7 -8 7 -6 0 -10 7 -10 15 0 22 -117 255 -124 248 -3 -4 -6 1
-6 10 0 9 -13 39 -30 67 -16 28 -30 53 -30 56 0 3 -5 10 -10 17 -6 7 -38 55
-71 107 -34 52 -65 97 -70 98 -5 2 -9 8 -9 14 0 6 -10 22 -22 37 -13 15 -32
40 -43 55 -22 31 -61 80 -133 166 -57 69 -297 308 -377 377 -138 117 -439 333
-465 333 -5 0 -10 5 -10 10 0 6 -4 10 -9 10 -5 0 -38 16 -73 36 -80 47 -280
147 -293 149 -5 0 -30 10 -55 22 -53 25 -121 54 -135 57 -5 2 -19 6 -30 10
-11 5 -32 12 -47 18 -15 6 -31 10 -35 11 -4 0 -24 7 -43 15 -19 8 -36 14 -37
13 -2 0 -8 1 -15 4 -45 15 -158 44 -193 50 -11 2 -20 4 -20 5 0 3 -64 17 -110
25 -16 3 -37 8 -45 10 -8 2 -35 7 -60 10 -52 7 -85 13 -85 15 0 1 -13 3 -30 5
-16 2 -55 6 -85 10 -30 3 -77 8 -105 11 -54 5 -463 13 -467 8z m484 -206 c32
-2 58 -6 58 -10 0 -3 7 -5 16 -4 9 1 40 -1 68 -5 28 -5 67 -11 86 -14 19 -3
60 -10 90 -17 30 -6 64 -12 75 -14 11 -1 21 -3 23 -4 3 -3 12 -5 57 -15 22 -4
45 -10 50 -14 6 -3 15 -6 20 -6 13 -1 66 -15 85 -22 8 -4 26 -8 40 -10 13 -2
28 -9 31 -15 4 -6 11 -8 17 -4 6 3 13 2 16 -3 3 -4 19 -11 35 -14 17 -4 47
-14 68 -23 21 -9 45 -18 53 -20 8 -2 23 -7 35 -12 47 -22 100 -46 105 -47 3
-1 35 -16 73 -33 37 -18 68 -31 70 -29 1 1 15 -8 31 -20 16 -13 32 -23 36 -23
12 0 155 -83 158 -92 2 -4 7 -8 12 -8 14 0 110 -62 110 -71 0 -5 6 -9 13 -9
18 0 247 -173 314 -237 13 -12 23 -20 23 -17 0 9 281 -277 322 -326 20 -25 44
-55 55 -67 43 -50 53 -63 53 -68 0 -3 8 -14 18 -24 28 -31 42 -50 42 -55 0 -3
11 -17 25 -32 14 -15 25 -33 25 -40 0 -7 4 -14 8 -16 10 -4 151 -228 153 -243
1 -5 9 -21 19 -35 17 -24 130 -254 130 -264 0 -3 12 -31 26 -62 14 -30 26 -64
27 -75 1 -10 4 -19 8 -19 3 0 12 -19 18 -42 7 -24 18 -49 25 -57 9 -12 8 -13
-2 -7 -12 7 -12 5 -1 -15 7 -13 14 -26 14 -29 4 -19 27 -98 32 -110 4 -8 7
-18 7 -22 1 -3 4 -9 8 -13 4 -4 4 -13 1 -21 -3 -8 0 -20 6 -28 6 -7 8 -16 5
-19 -3 -3 -2 -12 2 -19 4 -7 9 -19 10 -28 1 -8 5 -26 8 -40 8 -34 20 -93 21
-102 0 -3 3 -9 7 -13 4 -4 4 -13 1 -21 -3 -8 -2 -22 2 -31 7 -18 16 -89 19
-150 0 -18 3 -33 6 -33 19 0 18 -669 -1 -705 -3 -5 -5 -29 -5 -52 1 -24 -2
-43 -5 -43 -3 0 -5 -12 -4 -27 1 -16 -1 -32 -4 -38 -3 -5 -6 -16 -7 -25 -3
-36 -16 -108 -25 -145 -5 -22 -12 -49 -14 -60 -3 -11 -7 -32 -10 -47 -3 -15
-10 -39 -15 -54 -6 -15 -8 -29 -5 -32 2 -3 1 -10 -4 -16 -7 -9 -27 -69 -37
-111 -4 -20 -48 -141 -65 -182 -10 -22 -15 -44 -12 -47 4 -3 1 -6 -5 -6 -7 0
-11 -3 -10 -7 2 -11 -29 -83 -81 -188 -24 -49 -45 -92 -46 -95 -3 -15 -39 -76
-49 -82 -6 -4 -8 -8 -4 -8 4 0 -3 -15 -15 -34 -36 -55 -80 -131 -77 -135 1 -2
-3 -7 -8 -10 -5 -3 -35 -44 -67 -91 -31 -47 -68 -97 -81 -111 -13 -14 -22 -28
-19 -32 3 -4 2 -5 -1 -2 -4 2 -25 -20 -47 -50 -22 -30 -44 -55 -49 -55 -4 0
-8 -5 -8 -11 0 -6 -12 -23 -27 -38 -16 -14 -45 -45 -65 -68 -20 -23 -39 -39
-42 -35 -3 3 -6 0 -6 -6 0 -12 -38 -51 -154 -156 -44 -39 -88 -79 -98 -88 -10
-10 -18 -16 -18 -13 0 2 -11 -6 -24 -18 -51 -48 -126 -102 -285 -204 -53 -34
-101 -67 -108 -73 -7 -5 -19 -10 -28 -10 -8 0 -15 -4 -15 -10 0 -5 -4 -10 -8
-10 -5 0 -44 -19 -88 -43 -43 -23 -99 -51 -124 -62 -25 -11 -48 -23 -51 -28
-3 -5 -10 -9 -15 -9 -5 0 -19 -4 -32 -9 -13 -5 -28 -9 -33 -9 -5 0 -9 -4 -9
-10 0 -5 -3 -9 -7 -9 -5 1 -11 0 -15 -1 -5 -1 -11 -3 -15 -5 -5 -1 -15 -5 -23
-8 -52 -22 -136 -51 -142 -49 -5 1 -8 -3 -8 -9 0 -5 -4 -7 -10 -4 -5 3 -16 3
-22 -2 -7 -4 -15 -8 -18 -8 -3 0 -36 -10 -75 -22 -38 -12 -81 -24 -95 -27 -14
-2 -32 -7 -40 -10 -8 -3 -26 -8 -40 -10 -14 -3 -59 -12 -100 -22 -41 -9 -86
-17 -100 -19 -27 -3 -97 -13 -142 -21 -56 -9 -126 -15 -228 -19 -58 -3 -107
-5 -110 -6 -18 -4 -195 0 -300 6 -69 5 -133 8 -142 9 -9 0 -15 3 -13 6 2 3
-15 6 -38 7 -23 0 -58 3 -77 6 -19 3 -51 8 -70 11 -19 3 -46 8 -60 11 -14 3
-41 8 -60 12 -46 9 -50 10 -52 12 -2 2 -14 4 -28 7 -27 4 -52 11 -185 51 -102
30 -115 34 -132 35 -7 1 -13 4 -13 7 0 4 -21 13 -47 20 -27 8 -55 18 -63 22
-8 4 -60 27 -115 50 -94 40 -213 99 -315 157 -25 14 -57 32 -72 39 -16 8 -28
19 -28 24 0 6 -5 7 -10 4 -6 -3 -10 -3 -10 2 0 4 -18 17 -40 27 -22 11 -40 22
-40 25 0 4 -16 15 -35 25 -19 11 -35 23 -35 28 0 4 -6 8 -12 8 -7 0 -28 14
-47 30 -18 17 -36 30 -40 30 -3 0 -20 14 -38 30 -18 17 -35 30 -38 30 -3 0
-16 10 -29 23 -13 12 -47 42 -77 67 -121 102 -301 293 -411 435 -26 33 -57 72
-69 86 -12 14 -21 30 -20 34 2 4 -2 11 -7 14 -25 15 -221 330 -236 379 -4 12
-12 22 -17 22 -5 0 -8 3 -7 8 1 4 -13 39 -32 77 -30 65 -43 93 -82 185 -9 19
-24 60 -34 90 -10 30 -22 58 -27 61 -4 3 -7 10 -6 15 1 5 0 12 -1 17 -1 4 -3
10 -4 15 -1 4 -15 46 -30 94 -15 48 -29 97 -31 109 -2 11 -7 29 -10 39 -3 10
-8 28 -10 39 -25 110 -35 165 -37 199 -1 17 -5 32 -8 32 -4 0 -7 12 -8 28 -5
71 -11 147 -12 147 -9 0 -23 230 -23 362 1 107 10 263 20 348 4 28 7 65 7 83
0 17 3 32 6 32 4 0 6 15 5 33 -1 17 1 37 4 42 3 6 6 12 6 15 2 10 17 95 20
110 2 8 11 44 20 80 21 85 27 112 30 130 1 8 5 22 8 30 8 19 38 112 41 125 2
6 6 18 9 28 4 9 10 25 14 35 3 9 8 25 10 35 2 10 8 28 15 40 7 12 13 27 14 32
1 6 11 32 23 57 11 26 21 50 21 53 0 9 131 269 139 275 3 3 7 11 9 19 2 8 12
27 23 42 10 15 19 32 19 38 0 6 5 11 10 11 6 0 10 6 10 14 0 8 6 21 13 28 15
16 71 101 71 108 0 3 4 10 10 16 6 6 29 36 50 67 22 32 43 57 48 57 4 0 8 6 8
13 0 6 15 28 33 48 52 59 87 103 87 112 0 4 7 7 17 7 9 0 14 3 11 6 -6 6 8 21
118 135 152 158 483 429 523 429 7 0 9 5 6 10 -3 6 -1 10 6 10 7 0 35 15 63
33 28 19 67 42 86 53 19 10 37 21 40 24 14 15 268 139 274 133 3 -3 6 -1 6 5
0 7 5 12 11 12 5 0 29 8 52 19 47 20 77 33 92 37 6 2 41 15 80 29 77 29 279
92 322 100 16 3 41 8 57 10 16 3 33 8 38 11 4 3 29 8 55 11 27 3 53 9 59 14 6
5 14 6 17 2 4 -3 13 0 22 7 11 9 15 9 15 1 0 -7 5 -9 11 -5 6 3 27 8 47 10 55
5 103 14 113 20 5 3 9 0 9 -7 0 -8 4 -8 13 -2 6 5 37 11 67 12 30 2 57 4 58 6
4 3 414 -2 524 -7z"/>
<path d="M4210 6565 c0 -7 6 -20 13 -27 7 -7 16 -21 20 -30 3 -10 11 -18 17
-18 6 0 9 -4 5 -9 -3 -5 5 -17 17 -25 12 -9 19 -16 15 -16 -4 0 7 -13 23 -29
17 -15 30 -31 30 -34 0 -3 48 -54 108 -115 59 -60 121 -124 137 -143 47 -53
126 -163 125 -173 -1 -5 3 -12 8 -15 11 -7 65 -111 57 -111 -3 0 1 -12 9 -27
16 -33 46 -160 39 -167 -6 -6 -51 46 -90 104 -16 25 -58 101 -92 170 -35 69
-67 127 -72 128 -5 2 -9 12 -9 23 0 10 -4 19 -10 19 -5 0 -10 7 -10 15 0 8 -4
15 -10 15 -5 0 -10 5 -10 10 0 13 -60 76 -61 64 -7 -51 34 -202 91 -339 26
-62 21 -77 -18 -55 -17 9 -169 70 -187 74 -5 2 -23 8 -40 15 -16 7 -52 21 -80
31 -27 10 -75 28 -105 40 -30 12 -61 22 -67 23 -7 0 -13 4 -13 9 0 5 -5 6 -10
3 -6 -4 -16 -2 -23 3 -7 5 -37 17 -67 27 -30 10 -59 21 -64 25 -5 5 -15 6 -22
3 -8 -3 -14 0 -14 7 0 7 -7 10 -15 6 -8 -3 -15 -1 -15 5 0 5 -6 9 -12 8 -7 -2
-29 4 -48 13 -40 17 -91 32 -102 30 -5 -1 -8 2 -8 8 0 6 -3 9 -7 8 -11 -3
-125 33 -139 44 -6 4 -14 5 -17 1 -4 -3 -14 0 -23 8 -11 9 -9 1 7 -23 13 -21
30 -38 37 -38 7 0 10 -4 7 -10 -3 -5 -2 -10 2 -10 5 0 19 -10 33 -23 36 -33
158 -117 170 -117 5 0 10 -5 10 -11 0 -5 5 -7 10 -4 6 3 10 3 10 -2 0 -8 54
-36 66 -33 4 1 10 -2 13 -7 6 -9 61 -36 146 -73 22 -9 61 -27 87 -39 26 -11
49 -21 52 -21 2 0 35 -14 73 -32 37 -18 70 -33 73 -33 10 -2 156 -76 200 -101
82 -47 212 -138 217 -151 3 -7 10 -13 15 -13 18 0 112 -105 136 -151 27 -54
34 -113 16 -157 -7 -18 -13 -35 -13 -38 1 -3 -8 -17 -20 -30 -11 -13 -18 -24
-15 -24 3 0 -15 -20 -39 -45 -25 -25 -49 -45 -53 -45 -3 0 -14 -8 -23 -17 -17
-19 -45 -38 -71 -50 -8 -4 -19 -12 -25 -19 -5 -6 -35 -24 -65 -40 -30 -16 -57
-32 -60 -36 -3 -4 -22 -14 -43 -23 -20 -8 -37 -20 -37 -27 0 -6 -3 -8 -7 -5
-3 4 -11 3 -17 -1 -16 -12 -117 -51 -141 -55 -11 -1 -26 -6 -32 -10 -7 -5 -13
-4 -13 0 0 5 -10 9 -23 9 -28 0 -87 23 -87 34 0 5 -6 15 -14 23 -17 17 -44
104 -41 135 1 12 -3 22 -9 22 -6 0 -6 4 1 11 7 7 8 20 3 34 -5 14 -4 27 3 34
7 7 7 11 1 11 -12 0 -12 29 0 48 4 6 4 12 -1 12 -4 0 -9 39 -10 86 -1 47 -7
91 -12 98 -6 7 -8 15 -5 18 8 9 -25 70 -35 64 -4 -3 -9 -20 -10 -38 -4 -63 -7
-83 -12 -93 -3 -5 -5 -35 -5 -67 1 -31 -2 -54 -5 -52 -12 7 -16 -270 -4 -321
3 -16 7 -36 7 -42 1 -7 4 -13 8 -13 7 0 7 1 14 -80 7 -84 -35 -163 -122 -232
-12 -10 -22 -16 -22 -13 0 2 -21 -5 -47 -16 -25 -11 -71 -22 -102 -26 -31 -3
-58 -7 -60 -9 -2 -2 -10 1 -17 7 -8 7 -14 7 -18 0 -4 -7 -15 -7 -30 -1 -13 5
-26 6 -30 3 -3 -3 -13 -2 -23 2 -10 4 -29 9 -43 10 -14 1 -27 4 -30 5 -3 1 -8
2 -12 1 -5 0 -8 3 -8 9 0 6 -3 9 -7 8 -5 -1 -18 1 -29 5 -17 6 -21 15 -21 42
1 19 6 35 12 35 6 0 6 3 -1 8 -10 7 -14 142 -4 142 3 0 6 30 6 68 2 101 8 182
14 182 3 0 5 17 6 38 0 20 3 64 7 97 7 61 15 140 21 207 3 28 0 35 -10 31 -8
-3 -12 -9 -9 -13 3 -4 -1 -10 -9 -13 -15 -6 -52 -80 -60 -122 -3 -17 -8 -43
-11 -60 -4 -16 -8 -50 -10 -75 -2 -25 -5 -45 -5 -45 -1 0 -3 -11 -4 -25 -11
-100 -23 -170 -36 -206 -10 -26 -12 -26 -72 -20 -37 5 -81 18 -112 35 -112 61
-165 97 -170 115 -3 10 -3 69 0 130 7 151 7 156 14 156 3 0 6 12 6 28 2 28 4
39 24 112 7 25 13 50 14 55 1 6 5 16 9 23 5 6 5 17 2 22 -3 6 -1 10 4 10 6 0
11 6 11 13 0 7 21 75 46 152 25 77 47 147 49 155 2 8 4 16 5 18 2 1 4 11 5 22
1 11 3 21 4 23 2 2 5 14 15 62 1 6 6 16 10 24 7 10 5 12 -5 6 -11 -6 -12 -5
-1 6 6 7 12 22 12 33 -1 21 -1 21 -15 2 -8 -11 -15 -16 -15 -11 0 4 -12 -14
-26 -41 -14 -27 -31 -52 -38 -56 -6 -4 -7 -8 -2 -8 5 0 3 -7 -4 -15 -7 -8 -10
-15 -7 -15 3 0 -5 -21 -18 -47 -13 -25 -22 -50 -19 -55 3 -4 0 -8 -5 -8 -6 0
-10 -3 -9 -7 0 -5 -3 -17 -7 -28 -21 -50 -47 -120 -46 -123 1 -1 -6 -16 -14
-32 -9 -17 -12 -30 -8 -30 5 0 4 -4 -2 -8 -5 -4 -21 -28 -34 -54 -24 -48 -34
-57 -46 -38 -8 12 -25 13 -44 1 -9 -6 -10 -14 -5 -22 11 -18 13 -199 2 -199
-5 0 -7 -4 -4 -9 3 -5 2 -22 -3 -37 -5 -16 -14 -48 -21 -71 l-13 -42 -36 15
c-19 8 -38 19 -42 25 -3 6 -9 10 -13 9 -11 -2 -56 37 -56 49 0 6 -4 11 -9 11
-12 0 -42 83 -45 127 -1 21 -5 44 -9 50 -4 6 -3 15 3 18 8 5 7 11 -1 21 -7 9
-8 14 -1 14 6 0 9 8 8 17 -2 10 1 33 5 53 12 52 21 103 22 118 0 6 3 12 6 12
3 0 7 10 8 23 5 47 8 62 15 67 4 3 9 21 10 40 2 19 5 37 8 40 11 9 40 131 35
141 -4 5 -2 9 3 9 5 0 9 6 9 13 0 6 3 23 6 37 14 67 48 211 61 258 8 29 15 55
15 57 1 5 2 10 5 23 7 23 20 108 18 115 -1 4 2 7 6 7 4 0 8 9 8 20 0 11 -3 20
-6 20 -13 0 -73 -66 -96 -106 -20 -34 -71 -151 -73 -169 -1 -7 -3 -14 -20 -75
-6 -25 -16 -56 -21 -70 -9 -25 -52 -166 -56 -185 -2 -5 -5 -19 -8 -30 -2 -11
-9 -32 -14 -46 -6 -15 -8 -30 -5 -33 4 -3 2 -6 -4 -6 -5 0 -10 -6 -10 -12 0
-7 -4 -26 -8 -43 -4 -16 -8 -40 -9 -52 0 -13 -4 -23 -7 -23 -4 0 -12 -28 -19
-62 -7 -35 -14 -67 -16 -73 -1 -5 -5 -21 -8 -35 -3 -14 -7 -36 -10 -50 -3 -14
-9 -45 -12 -70 -3 -25 -8 -49 -11 -53 -5 -9 -30 21 -31 37 0 5 -5 12 -10 15
-30 19 -53 179 -37 251 3 14 8 39 11 55 12 67 103 302 150 388 8 15 12 27 8
27 -3 0 -1 7 6 15 7 8 9 15 5 15 -4 0 -2 7 6 16 21 25 -9 37 -42 17 -15 -9
-27 -19 -26 -23 1 -3 -4 -12 -11 -20 -7 -8 -21 -26 -32 -39 l-20 -24 4 29 c9
62 17 110 22 124 3 8 8 33 11 55 2 21 7 44 11 50 9 13 10 65 2 65 -20 0 -81
-79 -99 -128 -12 -31 -21 -59 -21 -62 1 -3 -3 -18 -9 -33 -6 -15 -13 -42 -16
-60 -13 -75 -29 -143 -38 -154 -5 -7 -6 -17 -2 -23 3 -5 2 -10 -3 -10 -5 0 -9
-6 -9 -12 0 -11 -67 -152 -101 -213 -40 -72 -59 -141 -60 -215 0 -99 31 -171
112 -264 14 -16 26 -33 26 -38 0 -4 6 -8 13 -8 6 0 33 -20 58 -43 62 -56 89
-78 89 -71 0 3 15 -6 33 -19 59 -43 344 -167 384 -167 7 0 13 -4 13 -10 0 -5
7 -10 16 -10 40 0 311 -146 354 -191 31 -31 49 -75 45 -109 -2 -19 -4 -41 -4
-49 -1 -16 -18 2 -71 78 -19 28 -38 51 -42 51 -3 0 -24 18 -46 40 -21 22 -44
40 -50 40 -7 0 -12 5 -12 10 0 6 -6 10 -14 10 -8 0 -16 3 -18 8 -3 7 -95 55
-113 58 -5 1 -29 9 -52 17 -22 9 -44 13 -47 10 -3 -4 -6 -2 -6 3 0 6 -10 11
-22 12 -13 0 -43 4 -68 8 -86 13 -95 12 -94 -16 13 -234 91 -444 214 -570 38
-39 74 -69 80 -65 5 3 10 2 10 -4 0 -14 117 -64 155 -66 6 -1 20 -5 32 -9 20
-6 22 -12 16 -49 -3 -23 -8 -44 -12 -47 -3 -3 -7 -15 -8 -27 -3 -24 -19 -47
-68 -98 -30 -31 -140 -116 -150 -115 -16 1 -132 -116 -140 -141 -6 -18 53
-159 67 -159 4 0 8 -9 8 -20 0 -11 4 -20 9 -20 5 0 13 -10 17 -22 8 -26 106
-128 122 -128 7 0 12 -4 12 -10 0 -5 9 -10 20 -10 11 0 20 -4 20 -9 0 -13 68
-27 167 -34 24 -2 46 -7 49 -10 13 -13 13 -161 1 -169 -9 -6 -9 -8 0 -8 9 0
10 -7 4 -22 -5 -13 -9 -26 -10 -30 0 -5 -1 -9 -2 -10 0 -2 -3 -15 -5 -29 -2
-15 -15 -52 -28 -84 -23 -56 -24 -58 -65 -60 -23 -1 -44 -4 -46 -6 -2 -2 -37
-56 -79 -119 -41 -63 -79 -120 -85 -126 -5 -7 -18 -27 -29 -45 -40 -73 -57
-99 -64 -99 -5 0 -8 -4 -8 -9 0 -11 -61 -113 -73 -122 -5 -3 -8 -10 -8 -15 1
-5 -5 -16 -12 -25 -8 -8 -20 -30 -28 -47 -8 -18 -18 -32 -22 -32 -5 0 -6 -4
-2 -9 3 -5 1 -12 -5 -16 -5 -3 -17 -23 -27 -43 -9 -20 -21 -40 -26 -43 -5 -3
-8 -8 -7 -10 1 -2 -5 -21 -14 -43 -9 -21 -16 -45 -16 -52 0 -8 -4 -14 -8 -14
-5 0 -9 -6 -9 -12 0 -7 -7 -40 -16 -73 -17 -64 -29 -150 -29 -202 0 -18 -5
-33 -11 -33 -8 0 -8 -3 -2 -8 13 -9 15 -52 2 -52 -5 0 -5 -6 1 -13 6 -7 11
-33 11 -58 0 -24 2 -53 4 -64 3 -11 8 -40 12 -64 4 -24 14 -60 22 -80 9 -20
15 -38 15 -41 -2 -18 40 -90 58 -100 38 -20 87 -4 106 35 9 19 20 35 24 35 5
0 11 8 14 18 4 11 31 43 62 73 80 78 82 79 93 79 6 0 11 5 11 10 0 6 7 10 15
10 8 0 15 4 15 10 0 5 11 12 25 16 14 3 25 10 25 14 0 5 16 14 35 20 19 6 35
16 35 21 0 6 4 8 9 4 5 -3 12 -1 16 5 4 6 11 8 16 5 5 -4 9 -1 9 4 0 6 5 11
11 11 6 0 25 6 42 14 50 22 71 29 80 28 4 -1 7 3 7 8 0 6 6 10 13 9 6 -1 26 4
42 11 17 7 35 14 40 15 19 5 200 87 211 96 6 5 14 6 17 2 4 -3 7 -2 7 4 0 5
19 18 43 29 23 10 44 22 47 26 3 4 17 12 30 17 31 14 58 31 82 53 10 10 23 18
28 18 6 0 18 8 28 17 10 10 31 27 46 38 91 65 244 217 316 315 74 100 132 190
123 190 -5 0 -3 4 2 8 16 12 45 69 38 76 -3 3 -2 6 4 6 6 0 13 8 16 18 3 9 18
44 32 77 14 33 28 77 30 97 3 32 -2 42 -26 62 -28 24 -29 27 -26 105 1 48 -2
83 -8 85 -5 3 -4 5 3 5 7 1 11 5 8 9 -3 5 -8 45 -11 88 -11 144 -19 222 -40
369 -9 61 -18 128 -20 149 -3 21 -7 57 -11 80 -3 23 -7 62 -9 87 -1 25 -4 50
-7 55 -2 5 -6 45 -7 89 -2 44 -5 83 -7 87 -2 3 9 9 26 12 16 3 43 9 60 12 16
3 32 5 35 5 3 -1 19 6 35 14 17 9 30 13 30 10 0 -7 104 57 108 67 2 4 10 8 18
8 9 0 13 4 9 9 -3 5 4 12 15 16 11 3 20 9 20 13 0 4 14 23 30 42 43 50 46 54
47 60 0 3 10 21 21 40 12 19 21 38 21 43 0 4 7 20 15 36 9 16 12 31 9 35 -4 3
-1 6 5 6 7 0 12 9 12 20 0 12 7 34 15 49 8 16 12 30 10 33 -3 2 1 22 7 44 6
21 12 50 13 64 2 14 6 54 10 89 l8 63 -44 -7 c-24 -4 -53 -9 -64 -12 -11 -2
-31 -6 -45 -8 -69 -12 -98 -19 -200 -50 -3 -1 -18 -5 -35 -10 -27 -7 -66 -26
-135 -66 -23 -13 -82 -71 -125 -121 -33 -39 -86 -59 -141 -52 -27 3 -50 7 -51
8 -6 6 247 255 276 272 17 10 31 22 31 27 0 4 4 6 9 3 5 -3 14 1 21 9 7 8 18
15 25 15 7 0 18 7 25 15 7 8 16 13 20 10 5 -3 10 -2 12 2 4 10 140 77 151 75
4 -1 7 2 7 8 0 6 3 9 8 8 7 -3 143 62 152 73 3 3 13 8 22 12 80 29 272 194
299 257 8 16 17 30 20 30 4 0 10 12 15 28 9 34 9 34 18 54 14 32 33 138 24
138 -5 0 -6 5 -2 12 9 14 12 138 4 138 -3 0 -6 15 -6 33 -2 51 -19 159 -31
187 -3 8 -5 23 -4 33 1 9 -4 17 -11 17 -9 0 -9 3 2 10 10 6 11 10 3 10 -7 0
-13 7 -13 15 0 19 -62 196 -91 260 -12 28 -23 52 -23 55 -1 3 -25 54 -55 115
-51 105 -57 129 -64 243 0 13 -65 14 -73 0 -3 -4 -16 -3 -29 2 -14 5 -25 7
-25 5 0 -7 -98 33 -113 45 -7 6 -34 27 -62 48 -27 20 -58 46 -67 56 -10 10
-18 16 -18 13 0 -4 -12 3 -26 16 -44 38 -124 78 -124 62z"/>
<path d="M4510 2476 c0 -18 -22 -36 -50 -41 -34 -6 -36 -13 -11 -34 18 -16 21
-26 17 -56 -6 -33 -4 -36 11 -30 35 15 73 17 88 5 21 -18 27 -8 16 24 -7 18
-7 26 0 26 6 0 8 4 5 8 -3 5 4 15 15 22 22 17 26 35 4 26 -8 -3 -15 -1 -15 4
0 6 -9 10 -20 10 -13 0 -22 9 -26 25 -6 26 -34 35 -34 11z"/>
<path d="M4414 2146 c-8 -33 -44 -61 -77 -60 -36 1 -39 -6 -16 -35 10 -13 19
-19 19 -15 0 5 5 2 10 -6 6 -8 8 -36 4 -64 l-6 -50 26 18 c28 18 86 30 86 18
0 -4 11 -12 25 -19 24 -11 27 -9 27 17 1 3 -2 17 -6 31 -4 20 1 34 23 60 16
18 28 36 25 40 -6 10 -54 17 -54 8 0 -5 -9 -1 -20 8 -11 10 -20 24 -20 31 0
13 -23 42 -34 42 -3 0 -8 -11 -12 -24z"/>
<path d="M4150 1830 c-7 -22 -17 -40 -22 -40 -6 0 -8 -6 -6 -12 3 -7 -1 -18
-8 -25 -7 -7 -14 -17 -16 -23 -3 -9 -72 -22 -125 -23 -34 -1 -28 -15 31 -73
30 -28 53 -54 51 -56 -4 -4 -11 -46 -21 -123 -2 -22 -1 -35 3 -29 4 6 36 25
70 43 67 33 71 33 146 -11 26 -15 50 -28 53 -28 3 0 3 15 1 33 -21 136 -25
118 36 180 63 63 66 58 -43 73 -54 7 -66 16 -82 60 -6 19 -16 34 -20 34 -4 0
-8 6 -8 13 0 6 -7 20 -14 29 -12 16 -14 14 -26 -22z"/>
<path d="M3680 1506 c-14 -31 -28 -56 -32 -56 -5 0 -8 -8 -8 -17 -1 -30 -33
-62 -65 -66 -17 -2 -35 -6 -40 -9 -6 -3 -25 -4 -43 -3 -18 1 -35 -2 -38 -7 -3
-5 -14 -6 -25 -3 -36 12 -19 -15 51 -84 70 -68 71 -70 68 -115 -2 -25 -6 -46
-9 -46 -4 0 -5 -10 -5 -22 1 -13 0 -27 -3 -33 -7 -13 -10 -48 -5 -57 3 -4 31
9 64 27 33 19 60 31 60 27 0 -4 4 -2 8 3 20 27 49 33 83 17 19 -9 37 -20 40
-25 3 -5 9 -8 13 -8 3 1 29 -10 57 -24 l50 -26 -6 33 c-3 18 -8 44 -10 58 -7
49 -16 95 -20 107 -2 6 30 44 71 85 40 40 74 75 74 78 0 3 -15 7 -32 9 -46 4
-73 8 -73 11 0 1 -18 3 -40 4 -23 1 -46 6 -53 10 -18 11 -92 162 -84 171 4 5
2 5 -5 2 -6 -4 -13 -2 -15 4 -2 6 -15 -15 -28 -45z"/>
<path d="M3021 1156 c-7 -8 -10 -19 -7 -25 3 -5 -1 -12 -9 -15 -8 -3 -14 -9
-13 -13 1 -4 -17 -47 -40 -95 l-43 -87 -47 -7 c-26 -3 -56 -8 -67 -11 -18 -4
-59 -9 -125 -17 -14 -2 -24 -8 -22 -15 3 -16 162 -171 175 -171 9 0 8 -16 -9
-125 -3 -16 -6 -40 -6 -52 -1 -13 -4 -23 -7 -23 -4 0 -7 -20 -8 -45 l-2 -44
27 12 c15 6 29 14 32 17 3 3 46 26 96 51 l90 46 42 -23 c23 -13 42 -20 42 -16
0 4 4 2 8 -4 7 -11 144 -84 157 -84 4 0 3 6 -2 12 -4 7 -8 24 -10 38 -3 35
-11 85 -13 85 -2 0 -5 18 -15 91 l-7 51 96 94 c53 52 96 96 96 100 0 5 -54 11
-112 13 -16 1 -28 3 -28 6 0 3 -15 7 -32 9 -85 7 -115 16 -115 34 0 6 -25 61
-55 120 -46 93 -56 107 -67 93z"/>
</g>
</svg>
